<?xml version="1.0" encoding="UTF-8" standalone="no"?>
<!-- Created with Inkscape (http://www.inkscape.org/) -->
<svg
   xmlns:dc="http://purl.org/dc/elements/1.1/"
   xmlns:cc="http://creativecommons.org/ns#"
   xmlns:rdf="http://www.w3.org/1999/02/22-rdf-syntax-ns#"
   xmlns:svg="http://www.w3.org/2000/svg"
   xmlns="http://www.w3.org/2000/svg"
   xmlns:xlink="http://www.w3.org/1999/xlink"
   xmlns:sodipodi="http://sodipodi.sourceforge.net/DTD/sodipodi-0.dtd"
   xmlns:inkscape="http://www.inkscape.org/namespaces/inkscape"
   height="260.40628"
   id="img"
   inkscape:version="0.46"
   sodipodi:docname="1195427939289960346blazing_sun_hermann_schw_01.svg"
   sodipodi:version="0.32"
   version="1.0"
   width="242.84373"
   inkscape:output_extension="org.inkscape.output.svg.inkscape">
  <sodipodi:namedview
     bordercolor="#666666"
     borderopacity="1.0"
     grid_units="mm"
     height="297mm"
     id="base"
     inkscape:current-layer="layer1"
     inkscape:cx="132.88805"
     inkscape:cy="63.835657"
     inkscape:document-units="mm"
     inkscape:pageopacity="0.0"
     inkscape:pageshadow="2"
     inkscape:window-height="885"
     inkscape:window-width="1679"
     inkscape:window-x="236"
     inkscape:window-y="49"
     inkscape:zoom="1.6491576"
     pagecolor="#ffffff"
     showgrid="true"
     units="mm"
     width="210mm">
    <inkscape:grid
       empspacing="5"
       empopacity="0.4"
       opacity="0.2"
       empcolor="#0000ff"
       color="#0000ff"
       spacingy="5mm"
       spacingx="5mm"
       originy="0px"
       originx="0px"
       type="xygrid"
       id="GridFromPre046Settings" />
  </sodipodi:namedview>
  <metadata
     id="metadata3">
    <rdf:RDF>
      <cc:Work
         rdf:about="">
        <dc:title>Blazing Sun</dc:title>
        <dc:description>contact: hermann.schwarting@knackich.de</dc:description>
        <dc:subject>
          <rdf:Bag>
            <rdf:li>flames</rdf:li>
            <rdf:li>sun</rdf:li>
            <rdf:li>fire</rdf:li>
            <rdf:li>blaze</rdf:li>
          </rdf:Bag>
        </dc:subject>
        <dc:publisher>
          <cc:Agent
             rdf:about="http://www.openclipart.org/">
            <dc:title>Hermann Schwarting</dc:title>
          </cc:Agent>
        </dc:publisher>
        <dc:creator>
          <cc:Agent>
            <dc:title>Hermann Schwarting</dc:title>
          </cc:Agent>
        </dc:creator>
        <dc:rights>
          <cc:Agent>
            <dc:title>Hermann Schwarting</dc:title>
          </cc:Agent>
        </dc:rights>
        <dc:date>2006-06-09</dc:date>
        <dc:format>image/svg+xml</dc:format>
        <dc:type
           rdf:resource="http://purl.org/dc/dcmitype/StillImage" />
        <cc:license
           rdf:resource="http://web.resource.org/cc/PublicDomain" />
        <dc:language>en</dc:language>
      </cc:Work>
      <cc:License
         rdf:about="http://web.resource.org/cc/PublicDomain">
        <cc:permits
           rdf:resource="http://web.resource.org/cc/Reproduction" />
        <cc:permits
           rdf:resource="http://web.resource.org/cc/Distribution" />
        <cc:permits
           rdf:resource="http://web.resource.org/cc/DerivativeWorks" />
      </cc:License>
    </rdf:RDF>
  </metadata>
  <defs
     id="defs">
    <linearGradient
       inkscape:collect="always"
       id="linearGradient8203">
      <stop
         style="stop-color:#000000;stop-opacity:1;"
         offset="0"
         id="stop8205" />
      <stop
         style="stop-color:#000000;stop-opacity:0;"
         offset="1"
         id="stop8207" />
    </linearGradient>
    <linearGradient
       inkscape:collect="always"
       id="linearGradient8071">
      <stop
         style="stop-color:#ffff00;stop-opacity:1;"
         offset="0"
         id="stop8073" />
      <stop
         style="stop-color:#ffff00;stop-opacity:0;"
         offset="1"
         id="stop8075" />
    </linearGradient>
    <linearGradient
       inkscape:collect="always"
       id="linearGradient7909">
      <stop
         style="stop-color:#ff0000;stop-opacity:1;"
         offset="0"
         id="stop7911" />
      <stop
         style="stop-color:#ff0000;stop-opacity:0;"
         offset="1"
         id="stop7913" />
    </linearGradient>
    <linearGradient
       inkscape:collect="always"
       id="linearGradient7761">
      <stop
         style="stop-color:#ff0000;stop-opacity:1;"
         offset="0"
         id="stop7763" />
      <stop
         style="stop-color:#ff0000;stop-opacity:0;"
         offset="1"
         id="stop7765" />
    </linearGradient>
    <linearGradient
       inkscape:collect="always"
       id="linearGradient7747">
      <stop
         style="stop-color:#ff0000;stop-opacity:1;"
         offset="0"
         id="stop7749" />
      <stop
         style="stop-color:#ff0000;stop-opacity:0;"
         offset="1"
         id="stop7751" />
    </linearGradient>
    <linearGradient
       inkscape:collect="always"
       id="linearGradient5338">
      <stop
         style="stop-color:#000000;stop-opacity:1;"
         offset="0"
         id="stop5340" />
      <stop
         style="stop-color:#000000;stop-opacity:0;"
         offset="1"
         id="stop5342" />
    </linearGradient>
    <linearGradient
       id="linearGradient4944">
      <stop
         id="stop4946"
         offset="0"
         style="stop-color:#fff62b;stop-opacity:1;" />
      <stop
         id="stop4948"
         offset="1"
         style="stop-color:#fffd0d;stop-opacity:0;" />
    </linearGradient>
    <inkscape:perspective
       id="perspective9"
       inkscape:persp3d-origin="121.42187 : 86.802094 : 1"
       inkscape:vp_z="242.84373 : 130.20314 : 1"
       inkscape:vp_y="0 : 1000 : 0"
       inkscape:vp_x="0 : 130.20314 : 1"
       sodipodi:type="inkscape:persp3d" />
    <filter
       height="1.4012292"
       y="-0.20061462"
       width="1.4040438"
       x="-0.20202188"
       id="filter4936"
       inkscape:collect="always">
      <feGaussianBlur
         id="feGaussianBlur4938"
         stdDeviation="10.755303"
         inkscape:collect="always" />
    </filter>
    <filter
       inkscape:collect="always"
       id="filter5356">
      <feGaussianBlur
         inkscape:collect="always"
         stdDeviation="0.42942795"
         id="feGaussianBlur5358" />
    </filter>
    <radialGradient
       inkscape:collect="always"
       xlink:href="#linearGradient5338"
       id="radialGradient5371"
       gradientUnits="userSpaceOnUse"
       gradientTransform="matrix(1,0,0,0.5329081,270.5787,458.42484)"
       cx="-156.24294"
       cy="889.74493"
       fx="-156.24294"
       fy="889.74493"
       r="56.027878" />
    <radialGradient
       inkscape:collect="always"
       xlink:href="#linearGradient5338"
       id="radialGradient7208"
       gradientUnits="userSpaceOnUse"
       gradientTransform="matrix(1,0,0,0.5329081,74.72113,453.57388)"
       cx="-156.24294"
       cy="889.74493"
       fx="-156.24294"
       fy="889.74493"
       r="56.027878" />
    <clipPath
       id="clipPath">
      <path
         style="font-size:40px;font-style:normal;font-weight:normal;line-height:80.00000119%;opacity:0.9;fill:#ffff00;fill-opacity:1;stroke:none;stroke-width:1px;stroke-linecap:butt;stroke-linejoin:miter;stroke-opacity:1;font-family:Bitstream Vera Sans"
         d="M -135.83109,924.2992 L -137.63158,926.31395 L -134.88159,925.78712 C -124.19592,923.74002 -124.07805,923.71744 -120.63219,921.4282 L -120.51196,921.03863 C -122.73973,921.70977 -123.68722,921.93202 -127.14897,922.63593 C -126.97094,922.07236 -126.79291,921.5088 -126.6195,920.98685 C -126.38367,920.24931 -126.14784,919.51176 -125.83569,918.43378 C -125.07502,916.08877 -125.00796,915.83156 -124.38604,914.04259 C -121.77469,913.37941 -119.53991,912.29965 -116.99074,910.46729 C -113.98166,908.30246 -111.88978,905.05079 -111.54725,901.97134 C -111.23249,899.14158 -113.27974,898.18977 -117.79757,899.05528 C -118.19043,899.13054 -118.62257,899.21332 -119.53077,899.42804 L -119.17933,898.34253 L -121.96885,900.26166 C -125.10944,901.18914 -126.9421,902.11041 -129.00132,903.686 C -132.32707,906.27804 -134.33111,909.43143 -134.69679,912.71895 C -134.83102,913.92576 -134.76646,914.72794 -134.40387,915.96175 L -131.24915,913.52466 C -131.55857,912.15847 -131.60236,911.51523 -131.49127,910.51649 C -131.24594,908.31093 -130.10631,906.01551 -128.5185,904.53023 C -127.06244,903.19238 -125.67119,902.43712 -123.04594,901.6491 C -125.14766,908.44593 -128.1094,917.4439 -130.21325,923.22296 L -135.83109,924.2992 M -119.98392,900.73667 C -119.39,900.58217 -118.7568,900.42014 -118.44252,900.35993 C -115.96754,899.88578 -114.77531,900.91993 -115.04378,903.33355 C -115.53444,907.74465 -118.68477,911.52492 -122.45618,912.24742 C -122.88832,912.33021 -123.19798,912.3488 -123.81266,912.34438 L -119.98392,900.73667 M -118.59579,932.52321 C -117.39645,932.45636 -115.68177,932.25005 -114.30678,931.98664 C -111.5568,931.45981 -109.89741,930.36809 -107.37578,927.40064 C -104.81024,924.38405 -104.60217,923.89618 -102.47267,916.84966 C -100.35244,909.88638 -99.258848,906.6223 -97.40934,901.74725 C -97.952454,902.13639 -98.412368,902.46886 -98.578768,902.58219 L -100.03245,903.55305 C -100.24277,903.71552 -100.57094,903.90057 -100.94765,904.17638 L -104.46888,914.74772 C -108.68442,918.08041 -108.89474,918.24288 -109.56259,918.37082 C -110.07331,918.46866 -110.36207,917.9538 -110.27875,917.20474 C -110.17692,916.28923 -109.61042,914.30725 -108.53535,911.20964 C -107.09496,906.90169 -106.28575,904.46593 -106.24409,904.0914 C -106.21169,903.8001 -106.38497,903.62966 -106.62068,903.67482 C -107.05282,903.75761 -109.72449,905.65416 -113.25591,908.36706 L -113.49875,909.51322 C -111.54124,908.16076 -111.08595,907.8699 -110.65381,907.78711 C -110.26095,907.71185 -110.09229,907.9239 -110.13395,908.29843 C -110.21727,909.04748 -110.63114,910.34859 -111.98133,914.19127 C -113.32689,917.99233 -113.62515,918.94547 -113.7455,920.02744 C -113.89362,921.35909 -113.41543,922.24494 -112.62972,922.09442 C -111.88329,921.95142 -108.51826,919.35185 -104.7256,916.01872 C -107.06553,923.92009 -107.06553,923.9201 -107.70822,925.55014 C -108.57286,927.79288 -109.91796,928.82439 -112.47151,929.31358 C -113.61079,929.53184 -114.45657,929.53096 -116.70961,929.3924 L -118.59579,932.52321 M -98.693394,919.30239 L -95.534168,917.51607 L -91.268534,905.09157 C -89.817103,903.79533 -88.867246,903.20609 -87.806535,903.00288 C -86.942252,902.83731 -86.46857,903.07238 -85.867893,903.89404 L -84.249587,899.71491 C -84.96824,899.60822 -85.273267,899.5852 -85.666123,899.66046 C -86.373264,899.79593 -87.23992,900.32851 -88.388579,901.32238 L -90.905468,903.55583 C -90.829152,903.21539 -90.727437,902.99227 -90.71355,902.86742 C -90.246514,901.43395 -90.179456,901.17674 -90.156311,900.96867 C -90.128539,900.71898 -90.341108,900.55607 -90.616107,900.60875 C -91.12682,900.70659 -94.782991,903.1583 -97.350678,905.15711 L -97.593513,906.30328 C -95.342484,904.73167 -95.097513,904.60328 -94.626086,904.51297 C -94.115374,904.41513 -93.912062,904.66127 -93.976865,905.24387 C -94.041669,905.82647 -94.652079,907.8576 -95.322546,909.73732 L -98.693394,919.30239 M -74.360467,897.49458 C -75.931891,897.79563 -78.580404,899.48411 -81.101922,901.75918 C -83.838384,904.23833 -86.087633,908.90488 -86.545886,913.02468 C -86.828245,915.56314 -85.673059,916.93021 -83.590923,916.53132 C -82.490926,916.32059 -81.344641,915.69372 -79.426413,914.34878 C -77.332526,912.80727 -75.920381,911.51856 -75.102149,910.38435 C -73.280769,907.83614 -71.570005,903.51711 -71.250616,900.64574 C -71.00066,898.39857 -72.278331,897.0957 -74.360467,897.49458 M -76.620873,899.84181 C -75.049449,899.54076 -74.247834,900.97556 -74.525563,903.47241 C -74.719974,905.22021 -75.510671,907.48951 -76.719623,909.71676 C -78.083462,912.2995 -79.641237,913.86048 -81.134089,914.14647 C -82.744798,914.45504 -83.594957,913.11099 -83.331114,910.73899 C -82.794171,905.91174 -79.370864,900.36864 -76.620873,899.84181 M -105.91032,948.70542 L -108.12028,953.36444 C -106.96284,955.0569 -105.21825,955.61868 -102.66469,955.12948 C -96.654003,953.97799 -90.182551,947.64729 -89.594691,942.3623 C -89.404909,940.65612 -89.936283,939.90264 -92.574935,938.04595 C -95.17894,936.22335 -95.571677,935.60622 -95.372638,933.81681 C -95.071764,931.11189 -92.887556,928.41272 -90.569707,927.96868 C -88.919722,927.65258 -88.413747,928.28874 -88.27785,930.86926 L -85.467447,928.41667 C -85.448575,926.17305 -86.502174,925.27525 -88.5843,925.67413 C -92.630716,926.44932 -97.754816,932.0739 -98.213069,936.1937 C -98.421366,938.06634 -97.74912,939.28155 -95.678853,940.71768 C -93.257399,942.45307 -92.675227,943.44118 -92.888153,945.35543 C -93.249202,948.60134 -96.515019,952.03717 -99.932856,952.69194 C -101.62214,953.01557 -103.26275,952.55605 -104.1846,951.51083 C -104.90313,950.71175 -105.12021,949.89806 -105.23083,948.12725 L -105.91032,948.70542 M -74.368581,941.64464 C -77.648157,944.51293 -79.8599,946.07702 -81.117039,946.31785 C -82.53132,946.58879 -83.22671,945.58164 -83.004527,943.58416 C -82.782343,941.58668 -82.014672,938.83306 -81.050691,936.7342 C -80.019651,934.37813 -78.873248,933.05887 -77.733966,932.84061 C -76.791112,932.65998 -76.368347,933.35281 -76.375587,935.1462 L -73.939643,933.29481 C -73.877213,933.07921 -73.854069,932.87114 -73.84944,932.82953 C -73.650401,931.04012 -74.389705,930.08211 -75.764701,930.34552 C -76.471841,930.48099 -76.922498,930.73024 -78.447871,931.99992 C -81.611845,934.52024 -82.309847,935.26487 -83.363912,937.13663 C -84.713864,939.59452 -85.932312,943.28978 -86.219299,945.86985 C -86.487771,948.28348 -85.58444,949.49515 -83.777303,949.14895 C -81.891604,948.7877 -78.485023,946.50599 -74.595275,942.99135 L -74.368581,941.64464 M -60.645888,927.44914 C -62.217311,927.75019 -64.865835,929.43867 -67.387343,931.71373 C -70.123804,934.19289 -72.373053,938.85944 -72.831307,942.97924 C -73.113665,945.5177 -71.958479,946.88477 -69.876343,946.48588 C -68.776347,946.27515 -67.630062,945.64828 -65.711833,944.30334 C -63.617956,942.76184 -62.205802,941.47312 -61.387569,940.33891 C -59.566199,937.7907 -57.855426,933.47167 -57.536037,930.6003 C -57.28608,928.35313 -58.563762,927.05026 -60.645888,927.44914 M -62.906293,929.79637 C -61.33488,929.49532 -60.533254,930.93012 -60.810984,933.42697 C -61.005394,935.17477 -61.796091,937.44407 -63.005043,939.67132 C -64.368883,942.25406 -65.926667,943.81504 -67.41951,944.10103 C -69.030219,944.4096 -69.880378,943.06555 -69.616535,940.69355 C -69.079591,935.8663 -65.656284,930.3232 -62.906293,929.79637 M -61.043941,952.9393 L -62.370631,954.49674 C -61.235978,954.32009 -56.884535,953.56792 -55.705968,953.34214 C -55.391683,953.28193 -54.841685,953.17657 -53.854916,952.9468 L -52.521342,951.67313 L -56.893555,952.26637 L -54.021907,943.0413 C -53.254711,943.05724 -52.827198,943.01606 -52.159343,942.88812 C -50.430777,942.55697 -49.446264,942.00182 -47.726718,940.36912 C -45.542629,938.36233 -44.712884,937.47028 -44.118852,936.62339 C -42.507787,934.23765 -40.755364,929.5441 -40.45449,926.83918 C -40.232307,924.8417 -40.909182,923.66809 -42.205606,923.91646 C -43.14846,924.09708 -44.553603,924.97718 -46.303176,926.53418 L -49.797695,929.60656 C -49.628921,929.12622 -49.499433,928.65341 -49.393089,928.38868 C -48.863623,926.7396 -48.56999,925.82808 -48.551475,925.66162 C -48.523702,925.41193 -48.766299,925.17332 -49.041298,925.226 C -49.434154,925.30126 -52.815326,927.70029 -55.926128,930.08824 L -56.282191,931.21537 C -55.748334,930.90946 -55.253763,930.61107 -55.087363,930.49774 C -53.887906,929.7385 -53.642935,929.61011 -53.32865,929.5499 C -52.857223,929.45959 -52.628513,929.82305 -52.711831,930.5721 C -52.878469,932.07021 -56.4391,943.34148 -59.620402,952.58513 L -61.043941,952.9393 M -53.034664,940.04198 C -52.174534,937.14847 -51.409236,934.76185 -50.817341,932.89718 C -50.754911,932.68158 -50.57688,932.11802 -50.336418,931.33886 C -46.797985,928.21734 -45.540728,927.28412 -44.519302,927.08844 C -43.733591,926.93792 -43.324712,927.75559 -43.477463,929.12885 C -43.68576,931.00149 -44.494973,933.43725 -45.731698,935.91418 C -47.065509,938.57262 -48.540084,940.07694 -50.150793,940.38551 C -51.132933,940.57366 -52.156613,940.44395 -53.034664,940.04198 M -28.095433,932.37262 C -31.342725,935.642 -33.358051,937.16845 -34.850893,937.45444 C -35.833033,937.64259 -36.57934,937.0932 -36.73399,936.06391 C -36.817071,935.42819 -36.80544,934.97796 -36.671204,933.77115 C -34.773755,932.26728 -33.497972,931.1676 -30.976454,928.89253 C -28.66526,926.77994 -27.687502,925.24863 -27.479205,923.37599 C -27.317196,921.91949 -28.084274,921.21117 -29.459269,921.47458 C -30.323552,921.64016 -30.975266,921.96865 -31.939009,922.68273 C -33.533696,923.88424 -34.994384,925.26371 -35.930473,926.42049 C -37.636251,928.62074 -39.481132,933.45419 -39.856067,936.82493 C -40.129167,939.28017 -39.08258,940.58658 -37.079015,940.20275 C -34.761176,939.75871 -31.698907,937.46151 -28.229669,933.57943 L -28.095433,932.37262 M -36.386709,932.25046 C -35.22357,927.6698 -33.032241,923.86962 -31.34296,923.546 C -30.675105,923.41806 -30.321654,924.04271 -30.432746,925.04145 C -30.664187,927.12216 -31.863772,928.57379 -36.386709,932.25046"
         id="text5094" />
    </clipPath>
    <filter
       id="filter"
       height="2.0"
       width="2.0"
       x="-0.5"
       y="-0.5">
      <feGaussianBlur
         stdDeviation="5.0"
         id="feGaussianBlur7232" />
    </filter>
    <clipPath
       id="clipPath8">
      <path
         style="font-size:40px;font-style:normal;font-weight:normal;line-height:80.00000119%;opacity:0.80000006;fill:#aa0044;fill-opacity:1;stroke:url(#radialGradient7208);stroke-width:1px;stroke-linecap:butt;stroke-linejoin:miter;stroke-opacity:1;filter:url(#filter5356);font-family:Bitstream Vera Sans"
         d="M -118.24208,899.40178 C -121.67891,902.17824 -125.76016,902.24499 -129.03774,905.54589 C -132.91616,908.69507 -135.15526,914.34519 -133.55639,917.99021 C -131.85394,916.46751 -128.78879,915.30403 -130.07123,913.12253 C -130.43599,909.36971 -127.09896,904.76467 -123.28988,903.8844 C -121.7162,903.85931 -124.38521,908.31788 -124.56662,910.12095 C -126.09098,914.82497 -127.67156,919.52623 -129.35281,924.21675 C -131.78845,925.05426 -134.76574,924.13807 -136.52475,927.17157 C -138.77477,929.50919 -133.14078,927.02548 -131.879,927.21435 C -127.7295,926.20566 -122.96945,926.16394 -119.19752,922.84399 C -118.48062,920.66452 -122.81121,923.52844 -124.21829,923.20869 C -126.85108,924.22431 -123.98429,920.05168 -123.97969,918.56279 C -123.79876,915.94957 -122.05546,915.32097 -120.04728,914.67028 C -115.2216,912.83165 -109.73132,907.48777 -110.07878,902.16519 C -110.68051,898.79926 -114.9706,899.61695 -117.8595,900.28304 C -117.86547,899.60968 -116.68599,897.97452 -118.24208,899.40178 z M -117.37779,902.16349 C -114.61761,901.16848 -113.63007,904.13219 -114.76082,906.72125 C -115.62888,910.07731 -119.11888,913.41086 -122.21802,913.27261 C -121.02648,909.6716 -119.83494,906.07059 -118.64339,902.46958 C -118.22141,902.36593 -117.7994,902.26244 -117.37779,902.16349 z M -96.45215,902.80014 C -98.27339,904.21543 -100.81298,904.99955 -100.91476,907.63404 C -102.03159,910.43371 -102.55391,913.60724 -104.03238,916.17947 C -105.49871,917.00342 -107.21757,919.41958 -108.70062,919.21032 C -108.80397,916.06948 -106.81268,912.54127 -105.97304,909.22685 C -105.83311,907.9819 -103.56144,904.39972 -105.67418,904.69412 C -108.02186,906.12226 -110.55449,907.90916 -112.54981,909.79769 C -113.86831,913.05163 -111.26194,910.25411 -109.73524,909.60849 C -108.86155,909.83089 -110.35969,912.22082 -110.39479,913.10758 C -111.15957,916.47916 -114.02798,920.62088 -112.68936,923.47447 C -111.1534,924.96433 -108.52958,921.56978 -106.72812,920.48476 C -103.94671,917.52875 -104.41996,919.24568 -105.34315,921.97167 C -106.3688,924.64655 -106.74785,929.02453 -110.07453,929.94174 C -112.13299,930.819 -114.27785,930.0473 -115.95104,930.65389 C -118.08467,933.46273 -118.67712,935.25983 -115.10691,934.07781 C -111.59833,934.06928 -107.92261,931.79599 -105.43406,928.29597 C -101.69594,923.84162 -101.41639,918.22821 -99.47438,913.22871 C -98.26879,909.52454 -97.0339,905.81921 -95.53854,902.14784 C -95.84308,902.36528 -96.14761,902.58271 -96.45215,902.80014 z M -89.71441,901.63663 C -92.06609,903.01835 -94.59746,904.63436 -96.66041,906.56278 C -97.97997,909.90527 -95.24784,906.94834 -93.75377,906.35594 C -92.46017,906.26398 -94.22618,908.89473 -94.09194,909.66619 C -95.45554,913.60437 -96.852,917.53987 -98.2589,921.4736 C -96.28084,920.20164 -93.49906,919.6556 -93.37451,916.81926 C -91.98976,913.37435 -91.25955,909.5581 -89.48594,906.33379 C -87.82068,904.67113 -85.44817,904.11465 -84.67825,906.04913 C -84.47985,904.24277 -81.35889,900.39713 -83.88657,900.55199 C -85.79297,900.54625 -87.51508,902.47726 -89.08833,903.83943 C -88.68636,902.852 -88.25418,901.11915 -89.71441,901.63663 z M -73.57049,898.54387 C -79.0267,900.45625 -84.16732,906.16113 -85.40503,912.04292 C -86.50375,915.06934 -85.94861,919.11919 -82.5302,918.33311 C -77.86453,916.73952 -72.96731,912.48092 -71.2739,907.29284 C -69.94923,904.21861 -68.46838,899.31169 -71.70014,898.47192 C -72.27097,898.32579 -72.90733,898.32141 -73.57049,898.54387 z M -75.56592,901.6307 C -72.77753,901.56479 -73.85118,905.98329 -74.66409,908.1794 C -75.79451,910.83438 -77.65968,915.17166 -80.73152,915.12488 C -83.01115,913.78609 -81.4489,909.48988 -80.25167,906.7602 C -79.27435,904.84331 -77.66403,902.14311 -75.56592,901.6307 z M -87.85018,926.73412 C -92.54757,928.17215 -97.57161,933.76414 -97.53973,938.77224 C -97.21676,942.88364 -90.77484,942.68511 -92.42856,947.91129 C -94.15456,953.56769 -102.41147,956.04042 -103.5825,950.97083 C -103.15329,948.46178 -104.93854,948.75325 -105.77263,951.24374 C -106.42997,952.92132 -108.30438,955.13822 -106.62897,955.94542 C -102.84169,958.97932 -95.91268,955.47762 -91.86943,950.986 C -88.96052,947.96225 -86.36462,942.25516 -89.59647,940.27326 C -91.36928,938.62477 -95.16289,937.58674 -93.55266,933.71296 C -92.93667,931.28473 -89.18997,928.36969 -87.89414,930.36983 C -87.70612,932.5644 -87.49843,933.59092 -85.2843,931.01824 C -82.72262,929.58438 -84.39865,926.39648 -86.32644,926.53767 C -86.816,926.50243 -87.32587,926.55632 -87.85018,926.73412 z M -75.1865,931.43538 C -78.95212,933.67397 -82.81342,937.19414 -84.03985,941.62694 C -85.10714,944.71905 -86.9112,949.64931 -84.02159,950.91438 C -80.32517,951.22214 -76.49901,947.18519 -73.32747,944.69746 C -71.75891,941.23479 -73.89141,942.76989 -75.72134,944.61516 C -77.33567,945.91194 -80.71531,948.76577 -81.46804,946.32063 C -81.57511,942.84652 -80.35301,938.66013 -77.90964,935.39344 C -76.52271,933.71404 -75.26273,935.1489 -75.67664,936.65202 C -75.46281,937.45522 -71.78781,935.03828 -72.31816,933.46316 C -72.28215,931.81028 -73.51713,930.7951 -75.1865,931.43538 z M -59.84057,928.49549 C -65.61053,930.4858 -70.84196,936.65384 -71.88829,942.83084 C -72.8986,945.86871 -71.62896,949.31344 -68.36697,948.1699 C -63.79176,946.34176 -59.07245,942.14155 -57.45356,937.01096 C -56.11508,933.90264 -54.76973,928.82525 -58.32405,928.36406 C -58.78859,928.28133 -59.31716,928.32368 -59.84057,928.49549 z M -47.99351,926.2259 C -50.44124,927.69207 -53.03098,929.48848 -55.17967,931.42078 C -56.8329,934.69493 -54.02089,932.12283 -52.47526,931.41177 C -51.26054,931.37735 -52.67779,933.83957 -52.72135,934.70438 C -54.57161,941.00911 -56.61211,947.29508 -58.79056,953.62169 C -60.66085,953.63906 -63.76258,957.80262 -60.16615,956.10312 C -57.55233,955.41434 -54.71428,955.66932 -52.22479,954.27308 C -48.49591,951.51534 -53.00258,952.9749 -54.86149,953.11362 C -55.52332,951.89483 -53.43359,948.15704 -53.06734,945.99705 C -52.84718,943.98801 -50.57962,945.14415 -49.29462,944.13431 C -45.16749,941.70152 -41.50626,937.48476 -40.19445,932.83216 C -39.23587,930.14989 -37.7044,925.56943 -40.539,924.82962 C -43.28106,924.99207 -45.88228,928.38373 -47.93815,929.77894 C -47.74905,928.66724 -46.09565,925.92241 -47.99351,926.2259 z M -28.96455,922.58044 C -33.64452,924.62418 -37.27163,929.84273 -38.42664,934.73407 C -39.47278,937.68156 -39.95402,942.38516 -36.41674,942.04905 C -32.7946,941.40594 -29.26254,937.96586 -26.72803,934.87929 C -25.59989,931.02661 -28.25969,934.7391 -29.77461,935.91435 C -31.36898,937.46814 -34.75171,939.86199 -35.25147,937.24398 C -36.0435,934.87359 -32.86451,933.72241 -31.36909,932.04566 C -28.66679,929.94219 -25.0222,926.28542 -26.23316,923.13899 C -26.70564,922.27768 -27.89657,922.20435 -28.96455,922.58044 z M -30.44722,925.37812 C -28.81981,925.45267 -30.1545,928.62294 -31.30548,929.58346 C -32.21057,930.48248 -35.13594,933.69455 -34.30638,931.54726 C -33.46434,929.44979 -32.55629,926.61376 -30.44722,925.37812 z M -61.836,931.58232 C -59.19936,931.46628 -60.07179,935.62241 -60.8062,937.71688 C -61.91154,940.47612 -63.81574,945.09521 -67.0323,945.08238 C -69.33461,943.66343 -67.71385,939.40858 -66.55244,936.7177 C -65.48782,934.74976 -64.0033,932.13518 -61.836,931.58232 z M -43.60698,928.91738 C -41.82142,928.95552 -43.20644,932.27618 -43.50128,933.63805 C -44.58466,936.69656 -46.51238,941.63524 -50.07407,941.41998 C -52.72971,941.81106 -50.23522,938.27626 -50.12187,936.65831 C -49.51301,934.48024 -48.99642,932.27011 -46.82267,931.09252 C -45.78979,930.2709 -44.73317,929.23983 -43.60698,928.91738 z"
         id="text5096" />
    </clipPath>
    <filter
       id="filtera"
       height="2.0"
       width="2.0"
       x="-0.5"
       y="-0.5">
      <feGaussianBlur
         stdDeviation="5.0"
         id="feGaussianBlur7237" />
    </filter>
    <radialGradient
       inkscape:collect="always"
       xlink:href="#linearGradient5338"
       id="radialGradient7693"
       gradientUnits="userSpaceOnUse"
       gradientTransform="matrix(1,0,0,0.5329081,275.50188,449.2822)"
       cx="-156.24294"
       cy="889.74493"
       fx="-156.24294"
       fy="889.74493"
       r="56.027878" />
    <filter
       inkscape:collect="always"
       id="filter7709">
      <feGaussianBlur
         inkscape:collect="always"
         stdDeviation="2.2986186"
         id="feGaussianBlur7711" />
    </filter>
    <radialGradient
       inkscape:collect="always"
       xlink:href="#linearGradient7747"
       id="radialGradient7753"
       cx="-79.021805"
       cy="925.22622"
       fx="-79.021805"
       fy="925.22622"
       r="58.027877"
       gradientTransform="matrix(1,0,0,0.549007,0,417.27052)"
       gradientUnits="userSpaceOnUse" />
    <radialGradient
       inkscape:collect="always"
       xlink:href="#linearGradient7747"
       id="radialGradient7755"
       gradientUnits="userSpaceOnUse"
       gradientTransform="matrix(1,0,0,0.549007,0,417.27052)"
       cx="-79.021805"
       cy="925.22622"
       fx="-79.021805"
       fy="925.22622"
       r="58.027877" />
    <radialGradient
       inkscape:collect="always"
       xlink:href="#linearGradient7747"
       id="radialGradient7757"
       gradientUnits="userSpaceOnUse"
       gradientTransform="matrix(1,0,0,0.549007,0,417.27052)"
       cx="-79.021805"
       cy="925.22622"
       fx="-79.021805"
       fy="925.22622"
       r="58.027877" />
    <radialGradient
       inkscape:collect="always"
       xlink:href="#linearGradient7747"
       id="radialGradient7759"
       gradientUnits="userSpaceOnUse"
       gradientTransform="matrix(1,0,0,0.549007,0,417.27052)"
       cx="-79.021805"
       cy="925.22622"
       fx="-79.021805"
       fy="925.22622"
       r="58.027877" />
    <linearGradient
       inkscape:collect="always"
       xlink:href="#linearGradient7761"
       id="linearGradient7769"
       x1="-312.60834"
       y1="904.86493"
       x2="-201.43457"
       y2="904.86493"
       gradientUnits="userSpaceOnUse"
       gradientTransform="translate(376.28041,18.569555)" />
    <filter
       inkscape:collect="always"
       id="filter7903">
      <feGaussianBlur
         inkscape:collect="always"
         stdDeviation="1.2371003"
         id="feGaussianBlur7905" />
    </filter>
    <radialGradient
       inkscape:collect="always"
       xlink:href="#linearGradient7909"
       id="radialGradient7915"
       cx="121.25895"
       cy="921.43454"
       fx="121.25895"
       fy="921.43454"
       r="119.43639"
       gradientTransform="matrix(1,0,0,1.0715633,0,-65.940928)"
       gradientUnits="userSpaceOnUse" />
    <radialGradient
       inkscape:collect="always"
       xlink:href="#linearGradient8071"
       id="radialGradient8077"
       cx="119.25895"
       cy="923.43451"
       fx="119.25895"
       fy="923.43451"
       r="55.586886"
       gradientTransform="matrix(1,0,0,0.5295862,0,434.39635)"
       gradientUnits="userSpaceOnUse" />
    <radialGradient
       inkscape:collect="always"
       xlink:href="#linearGradient8071"
       id="radialGradient8081"
       gradientUnits="userSpaceOnUse"
       gradientTransform="matrix(1,0,0,0.5295862,0,434.39635)"
       cx="119.25895"
       cy="923.43451"
       fx="119.25895"
       fy="923.43451"
       r="55.586886" />
    <linearGradient
       inkscape:collect="always"
       xlink:href="#linearGradient7761"
       id="linearGradient8083"
       gradientUnits="userSpaceOnUse"
       gradientTransform="translate(376.28041,18.569555)"
       x1="-312.60834"
       y1="904.86493"
       x2="-201.43457"
       y2="904.86493" />
    <radialGradient
       inkscape:collect="always"
       xlink:href="#linearGradient8203"
       id="radialGradient8209"
       cx="118.21333"
       cy="922.47037"
       fx="118.21333"
       fy="922.47037"
       r="58.700773"
       gradientTransform="matrix(1,0,0,0.5502964,0,414.83827)"
       gradientUnits="userSpaceOnUse" />
    <radialGradient
       inkscape:collect="always"
       xlink:href="#linearGradient8203"
       id="radialGradient8211"
       cx="-79.021805"
       cy="925.22622"
       fx="-79.021805"
       fy="925.22622"
       r="58.027877"
       gradientTransform="matrix(1,0,0,0.549007,0,417.27052)"
       gradientUnits="userSpaceOnUse" />
    <radialGradient
       inkscape:collect="always"
       xlink:href="#linearGradient8203"
       id="radialGradient8213"
       cx="119.25895"
       cy="923.43452"
       fx="119.25895"
       fy="923.43452"
       r="56.027875"
       gradientTransform="matrix(1,0,0,0.5329092,0,431.32774)"
       gradientUnits="userSpaceOnUse" />
    <radialGradient
       inkscape:collect="always"
       xlink:href="#linearGradient8203"
       id="radialGradient8215"
       cx="119.25895"
       cy="923.43451"
       fx="119.25895"
       fy="923.43451"
       r="59.186646"
       gradientTransform="matrix(1,0,0,0.5534711,0,412.3402)"
       gradientUnits="userSpaceOnUse" />
    <radialGradient
       inkscape:collect="always"
       xlink:href="#linearGradient8203"
       id="radialGradient8217"
       cx="119.25895"
       cy="923.43452"
       fx="119.25895"
       fy="923.43452"
       r="59.700959"
       gradientTransform="matrix(1,0,0,0.5485425,0,416.89148)"
       gradientUnits="userSpaceOnUse" />
  </defs>
  <g
     transform="translate(0,-791.9559)"
     inkscape:label="Blazing Sun"
     inkscape:groupmode="layer"
     id="layer1">
    <g
       id="g8219">
      <path
         id="path7250"
         d="M 66.358483,920.18303 L 64.557993,922.19773 M 64.557993,922.19773 L 67.307983,921.67093 M 67.307983,921.67093 C 77.993653,919.62383 78.111523,919.60123 81.557383,917.31193 M 77.803533,909.92633 C 80.414883,909.26323 82.649663,908.18343 85.198833,906.35103 M 73.188253,899.56973 C 69.862503,902.16183 67.858463,905.31523 67.492783,908.60273 M 67.492783,908.60273 C 67.358553,909.80953 67.423113,910.61173 67.785703,911.84553 M 67.785703,911.84553 L 70.940423,909.40843 M 73.671073,900.41403 C 75.127133,899.07613 76.518383,898.32093 79.143633,897.53283 M 79.143633,897.53283 C 77.041913,904.32973 74.080173,913.32773 71.976323,919.10673 M 82.205653,896.62043 C 82.799573,896.46593 83.432773,896.30393 83.747053,896.24373 M 83.747053,896.24373 C 86.222033,895.76953 87.414263,896.80373 87.145793,899.21733 M 87.145793,899.21733 C 86.655133,903.62843 83.504803,907.40873 79.733393,908.13123 M 83.593783,928.40703 C 84.793123,928.34013 86.507803,928.13383 87.882793,927.87043 M 87.882793,927.87043 C 90.632773,927.34363 92.29216,926.25183 94.81379,923.28443 M 101.24192,900.06013 L 97.72069,910.63153 M 88.933663,904.25083 L 88.690823,905.39703 M 88.690823,905.39703 C 90.648333,904.04453 91.103623,903.75363 91.535763,903.67093 M 91.535763,903.67093 C 91.928623,903.59563 92.09728,903.80773 92.05562,904.18223 M 92.05562,904.18223 C 91.972303,904.93123 91.558433,906.23233 90.208243,910.07503 M 90.208243,910.07503 C 88.862683,913.87613 88.564423,914.82923 88.444073,915.91123 M 88.444073,915.91123 C 88.295953,917.24283 88.774143,918.12873 89.559853,917.97823 M 89.559853,917.97823 C 90.306283,917.83523 93.67131,915.23563 97.46397,911.90253 M 97.46397,911.90253 C 95.12404,919.80383 95.12404,919.80393 94.48135,921.43393 M 85.479963,925.27623 L 83.593783,928.40703 M 103.49618,915.18613 L 106.6554,913.39983 M 110.92103,900.97533 C 112.37247,899.67913 113.32232,899.08983 114.38303,898.88663 M 114.38303,898.88663 C 115.24732,898.72113 115.721,898.95613 116.32168,899.77783 M 104.83889,901.04093 L 104.59606,902.18703 M 104.59606,902.18703 C 106.84709,900.61543 107.09206,900.48703 107.56348,900.39673 M 107.56348,900.39673 C 108.07419,900.29893 108.27751,900.54503 108.2127,901.12763 M 108.2127,901.12763 C 108.1479,901.71023 107.53749,903.74143 106.86703,905.62113 M 106.86703,905.62113 L 103.49618,915.18613 M 121.08765,897.64293 C 118.35118,900.12213 116.10194,904.78863 115.64368,908.90843 M 115.64368,908.90843 C 115.36132,911.44693 116.51651,912.81403 118.59865,912.41513 M 118.59865,912.41513 C 119.69864,912.20433 120.84493,911.57753 122.76316,910.23253 M 122.76316,910.23253 C 124.85704,908.69103 126.26919,907.40233 127.08742,906.26813 M 125.5687,895.72563 C 127.14012,895.42453 127.94173,896.85933 127.66401,899.35623 M 127.66401,899.35623 C 127.46959,901.10403 126.6789,903.37333 125.46995,905.60053 M 125.46995,905.60053 C 124.10611,908.18323 122.54833,909.74423 121.05548,910.03023 M 96.27925,944.58923 L 94.06929,949.24823 M 94.06929,949.24823 C 95.22673,950.94073 96.97132,951.50243 99.52488,951.01323 M 99.52488,951.01323 C 105.53557,949.86173 112.00702,943.53103 112.59488,938.24613 M 111.61986,923.85243 C 113.26985,923.53633 113.77582,924.17253 113.91172,926.75303 M 113.91172,926.75303 L 116.72212,924.30043 M 113.60527,921.55793 C 109.55885,922.33313 104.43476,927.95763 103.9765,932.07753 M 103.9765,932.07753 C 103.76821,933.95013 104.44045,935.16533 106.51072,936.60143 M 106.51072,936.60143 C 108.93217,938.33683 109.51434,939.32493 109.30142,941.23923 M 109.30142,941.23923 C 108.94037,944.48513 105.67455,947.92093 102.25672,948.57573 M 124.4556,928.72443 C 125.39846,928.54373 125.82122,929.23663 125.81398,931.02993 M 125.81398,931.02993 L 128.24993,929.17863 M 123.7417,927.88373 C 120.57772,930.40403 119.87972,931.14863 118.82566,933.02043 M 118.82566,933.02043 C 117.4757,935.47833 116.25726,939.17353 115.97027,941.75363 M 115.97027,941.75363 C 115.7018,944.16723 116.60513,945.37893 118.41227,945.03273 M 118.41227,945.03273 C 120.29796,944.67143 123.70455,942.38973 127.59429,938.87513 M 134.80223,927.59753 C 132.06576,930.07663 129.81652,934.74323 129.35826,938.86303 M 129.35826,938.86303 C 129.0759,941.40143 130.23109,942.76853 132.31323,942.36963 M 132.31323,942.36963 C 133.41322,942.15893 134.55951,941.53203 136.47774,940.18713 M 136.47774,940.18713 C 138.57161,938.64563 139.98377,937.35693 140.802,936.22273 M 139.28328,925.68013 C 140.85469,925.37913 141.65631,926.81393 141.37858,929.31073 M 141.37858,929.31073 C 141.18417,931.05853 140.39348,933.32783 139.18453,935.55513 M 139.18453,935.55513 C 137.82069,938.13783 136.2629,939.69883 134.77006,939.98483 M 141.14563,948.82313 L 139.81894,950.38053 M 139.81894,950.38053 C 140.95359,950.20383 145.30503,949.45173 146.4836,949.22593 M 146.4836,949.22593 C 146.79789,949.16573 147.34788,949.06033 148.33465,948.83063 M 148.33465,948.83063 L 149.66823,947.55693 M 148.16766,938.92503 C 148.93486,938.94103 149.36237,938.89983 150.03023,938.77193 M 150.03023,938.77193 C 151.75879,938.44073 152.7433,937.88563 154.46285,936.25293 M 146.26344,925.97203 L 145.90738,927.09913 M 145.90738,927.09913 C 146.44123,926.79323 146.93581,926.49483 147.10221,926.38153 M 147.10221,926.38153 C 148.30166,925.62233 148.54663,925.49393 148.86092,925.43373 M 148.86092,925.43373 C 149.33235,925.34333 149.56106,925.70683 149.47774,926.45583 M 149.47774,926.45583 C 149.3111,927.95403 145.75047,939.22523 142.56917,948.46893 M 151.85315,927.22263 C 155.39158,924.10113 156.64884,923.16793 157.67026,922.97223 M 157.67026,922.97223 C 158.45597,922.82173 158.86485,923.63933 158.7121,925.01263 M 158.7121,925.01263 C 158.50381,926.88523 157.69459,929.32103 156.45787,931.79793 M 156.45787,931.79793 C 155.12406,934.45643 153.64948,935.96073 152.03878,936.26933 M 165.51837,929.65493 C 167.41582,928.15103 168.6916,927.05143 171.21312,924.77633 M 166.2591,922.30423 C 164.55331,924.50453 162.70843,929.33793 162.3335,932.70873 M 162.3335,932.70873 C 162.0604,935.16393 163.10699,936.47033 165.11055,936.08653 M 165.11055,936.08653 C 167.4284,935.64253 170.49067,933.34533 173.95991,929.46323 M 170.84662,919.42983 C 171.51447,919.30183 171.86792,919.92653 171.75683,920.92523 M 171.75683,920.92523 C 171.52539,923.00593 170.3258,924.45753 165.80287,928.13423"
         style="fill:url(#radialGradient8217);stroke:#ffffff;stroke-width:10;stroke-opacity:1;filter:url(#filter);fill-opacity:1;opacity:1" />
      <path
         id="path7252"
         d="M 80.271213,919.68141 L 80.391443,919.29191 M 80.391443,919.29191 C 78.163673,919.96301 77.216183,920.18531 73.754423,920.88921 M 73.754423,920.88921 C 73.932453,920.32561 74.110483,919.76201 74.283893,919.24011 M 74.283893,919.24011 C 74.519723,918.50261 74.755553,917.76501 75.067703,916.68701 M 75.067703,916.68701 C 75.828373,914.34201 75.895433,914.08481 76.517363,912.29581 M 83.912663,908.72051 C 86.921743,906.55571 89.013623,903.30401 89.356153,900.22461 M 89.356153,900.22461 C 89.670913,897.39481 87.623663,896.44301 83.105833,897.30851 M 83.105833,897.30851 C 82.712973,897.38381 82.280833,897.46661 81.372633,897.68131 M 81.372633,897.68131 L 81.724073,896.59581 M 81.724073,896.59581 L 78.934553,898.51491 M 78.934553,898.51491 C 75.793953,899.44241 73.961293,900.36371 71.902073,901.93921 M 69.654243,911.77791 C 69.344823,910.41171 69.301033,909.76851 69.412123,908.76971 M 69.412123,908.76971 C 69.657453,906.56421 70.797083,904.26881 72.384893,902.78351 M 70.690143,921.47621 L 65.072303,922.55251 M 78.447223,910.50071 C 78.015083,910.58351 77.705423,910.60211 77.090743,910.59761 M 77.090743,910.59761 L 80.919483,898.98991 M 93.52762,925.65391 C 96.09316,922.63731 96.30122,922.14941 98.43072,915.10291 M 98.43072,915.10291 C 100.55095,908.13961 101.64455,904.87561 103.49405,900.00051 M 103.49405,900.00051 C 102.95094,900.38961 102.49103,900.72211 102.32463,900.83541 M 102.32463,900.83541 L 100.87094,901.80631 M 100.87094,901.80631 C 100.66062,901.96881 100.33245,902.15381 99.95574,902.42961 M 96.43451,913.00101 C 92.21898,916.33371 92.00866,916.49611 91.340813,916.62411 M 91.340813,916.62411 C 90.830093,916.72191 90.541333,916.20711 90.624653,915.45801 M 90.624653,915.45801 C 90.726483,914.54251 91.292983,912.56051 92.36805,909.46291 M 92.36805,909.46291 C 93.80844,905.15491 94.61765,902.71921 94.65931,902.34471 M 94.65931,902.34471 C 94.69171,902.05341 94.51843,901.88291 94.28272,901.92811 M 94.28272,901.92811 C 93.85058,902.01091 91.178913,903.90741 87.647493,906.62031 M 93.19518,923.80341 C 92.33054,926.04611 90.985443,927.07761 88.431893,927.56681 M 88.431893,927.56681 C 87.292613,927.78511 86.446833,927.78421 84.193793,927.64571 M 105.36923,915.76931 L 109.63486,903.34481 M 115.0355,902.14731 L 116.65381,897.96821 M 116.65381,897.96821 C 115.93515,897.86151 115.63013,897.83851 115.23727,897.91371 M 115.23727,897.91371 C 114.53013,898.04921 113.66347,898.58181 112.51482,899.57561 M 112.51482,899.57561 L 109.99793,901.80911 M 109.99793,901.80911 C 110.07424,901.46861 110.17596,901.24551 110.18984,901.12071 M 110.18984,901.12071 C 110.65688,899.68721 110.72394,899.43001 110.74708,899.22191 M 110.74708,899.22191 C 110.77486,898.97221 110.56229,898.80931 110.28729,898.86201 M 110.28729,898.86201 C 109.77657,898.95981 106.1204,901.41161 103.55272,903.41041 M 126.54293,895.74781 C 124.9715,896.04891 122.32299,897.73741 119.80147,900.01241 M 125.80125,908.63761 C 127.62263,906.08941 129.33339,901.77041 129.65278,898.89901 M 129.65278,898.89901 C 129.90273,896.65181 128.62506,895.34891 126.54293,895.74781 M 119.76931,912.39971 C 118.1586,912.70831 117.30844,911.36421 117.57228,908.99221 M 117.57228,908.99221 C 118.10922,904.16501 121.53253,898.62191 124.28252,898.09511 M 111.3087,940.61561 C 111.49849,938.90941 110.96711,938.15591 108.32846,936.29921 M 108.32846,936.29921 C 105.72445,934.47661 105.33172,933.85951 105.53076,932.07011 M 105.53076,932.07011 C 105.83163,929.36511 108.01584,926.66601 110.33369,926.22191 M 115.43595,926.66991 C 115.45482,924.42631 114.40122,923.52851 112.31909,923.92741 M 100.97054,950.94521 C 99.28125,951.26881 97.64064,950.80931 96.71879,949.76411 M 96.71879,949.76411 C 96.00027,948.96501 95.78319,948.15131 95.67257,946.38051 M 95.67257,946.38051 L 94.99308,946.95871 M 126.53481,939.89791 C 123.25524,942.76621 121.04349,944.33031 119.78636,944.57111 M 119.78636,944.57111 C 118.37207,944.84201 117.67668,943.83491 117.89887,941.83741 M 117.89887,941.83741 C 118.12105,939.83991 118.88872,937.08631 119.8527,934.98741 M 119.8527,934.98741 C 120.88374,932.63141 122.03015,931.31211 123.16943,931.09391 M 126.96375,931.54811 C 127.02618,931.33251 127.04933,931.12441 127.05395,931.08281 M 127.05395,931.08281 C 127.25299,929.29341 126.51369,928.33541 125.13869,928.59881 M 125.13869,928.59881 C 124.43155,928.73421 123.9809,928.98351 122.45552,930.25321 M 126.30812,941.24461 L 126.53481,939.89791 M 140.2575,925.70241 C 138.68608,926.00341 136.03756,927.69191 133.51605,929.96701 M 139.51582,938.59221 C 141.33719,936.04401 143.04797,931.72491 143.36736,928.85351 M 143.36736,928.85351 C 143.61731,926.60641 142.33963,925.30351 140.2575,925.70241 M 133.48388,942.35431 C 131.87317,942.66291 131.02301,941.31881 131.28686,938.94681 M 131.28686,938.94681 C 131.8238,934.11951 135.24711,928.57651 137.9971,928.04961 M 148.38205,949.92641 L 144.00984,950.51961 M 144.00984,950.51961 L 146.88149,941.29451 M 153.17668,938.62241 C 155.36077,936.61561 156.19051,935.72351 156.78454,934.87661 M 156.78454,934.87661 C 158.39561,932.49091 160.14803,927.79731 160.44891,925.09241 M 160.44891,925.09241 C 160.67109,923.09501 159.99421,921.92131 158.69779,922.16971 M 158.69779,922.16971 C 157.75494,922.35031 156.34979,923.23041 154.60022,924.78741 M 154.60022,924.78741 L 151.1057,927.85981 M 151.1057,927.85981 C 151.27447,927.37951 151.40396,926.90671 151.5103,926.64191 M 151.5103,926.64191 C 152.03977,924.99281 152.33341,924.08131 152.35192,923.91491 M 152.35192,923.91491 C 152.37969,923.66521 152.1371,923.42661 151.8621,923.47921 M 151.8621,923.47921 C 151.46924,923.55451 148.08807,925.95351 144.97726,928.34151 M 141.28299,950.83841 L 139.85945,951.19261 M 147.86873,938.29521 C 148.72886,935.40171 149.49416,933.01511 150.08605,931.15041 M 150.08605,931.15041 C 150.14848,930.93481 150.32651,930.37131 150.56697,929.59211 M 150.7526,938.63881 C 149.77046,938.82691 148.74678,938.69721 147.86873,938.29521 M 172.80796,930.62591 C 169.56067,933.89531 167.54534,935.42171 166.0525,935.70771 M 166.0525,935.70771 C 165.07036,935.89581 164.32406,935.34651 164.16941,934.31721 M 164.16941,934.31721 C 164.08632,933.68141 164.09796,933.23121 164.23219,932.02441 M 169.92694,927.14581 C 172.23814,925.03321 173.21589,923.50191 173.42419,921.62921 M 173.42419,921.62921 C 173.5862,920.17271 172.81912,919.46441 171.44413,919.72781 M 171.44413,919.72781 C 170.57984,919.89341 169.92813,920.22191 168.96439,920.93601 M 168.96439,920.93601 C 167.3697,922.13751 165.90901,923.51701 164.97292,924.67371 M 172.67373,931.83271 L 172.80796,930.62591 M 164.51669,930.50371 C 165.67983,925.92301 167.87115,922.12291 169.56044,921.79931"
         style="opacity:1;fill:url(#radialGradient8215);fill-opacity:1;stroke:#ff0000;stroke-width:10;stroke-opacity:0.87030717000000002;filter:url(#filter7709)" />
      <path
         d="M 113.73066,794.70088 C 123.93258,807.33398 104.27799,810.46624 111.75355,825.54401 C 115.80569,833.71701 107.01259,839.40339 102.8717,839.35348 C 98.42398,839.30355 91.700933,836.87764 97.03157,825.54402 C 90.341363,834.672 90.647623,852.35149 104.45339,856.96509 C 100.25434,857.8525 96.19672,859.12286 92.316893,860.73682 C 92.257213,860.5756 92.225263,860.41205 92.164803,860.25015 C 88.767493,851.15196 75.467893,848.56281 58.766613,856.35673 C 69.135323,852.7925 76.478893,859.784 78.598693,868.34115 C 78.600993,868.35047 78.596393,868.36226 78.598693,868.37156 C 72.574263,872.69685 67.260263,877.97551 62.903373,883.97563 C 59.477693,880.96535 54.908553,876.53635 52.166063,872.2954 C 44.230233,860.02355 38.271873,857.46966 28.653483,857.29968 C 29.712503,857.48328 38.184863,859.1411 37.991603,864.5694 C 37.874563,867.85712 31.834953,870.97718 26.585123,870.92661 C 7.170673,870.7396 3.169063,851.51496 3.072553,851.03372 C 3.090393,851.95138 3.641963,866.77131 19.437053,875.42837 C 33.507163,883.14843 44.059853,886.67687 43.953393,890.05909 C 43.841453,893.6159 40.249203,906.23554 22.083363,892.8879 C 34.254913,905.84349 45.565623,901.42621 55.390293,897.14632 C 52.612523,903.58164 50.793593,910.53014 50.097693,917.79965 C 40.367643,920.84569 38.582013,927.85791 34.371953,939.18301 C 39.219893,931.30684 45.257193,928.33256 49.945603,929.14531 C 50.341253,935.00271 51.461323,940.65988 53.230673,946.02691 C 51.977763,945.56182 50.703603,945.08512 49.458923,944.6277 C 45.264433,943.08627 41.854433,945.90387 38.508703,949.73782 C 42.428613,946.03836 47.928743,947.41003 48.820163,952.62746 C 49.795873,958.33822 43.205013,957.43012 35.558223,955.54751 C 27.968713,953.67903 24.728653,958.88404 21.018753,965.95024 C 26.017533,960.24939 30.427813,958.02638 33.246513,962.9085 C 35.973863,967.63243 30.612923,972.42909 22.205043,972.42909 C 16.154283,972.42909 13.587203,977.9489 12.258573,989.7366 C 16.880003,976.835 26.666093,986.9973 33.824433,979.3643 C 42.307323,970.31884 51.311633,969.04489 54.204023,972.85499 C 57.096413,976.665 57.769913,982.6972 46.630113,984.2919 C 54.840643,985.1547 64.656413,979.1004 67.922223,971.02992 C 71.176193,974.5785 74.793923,977.8054 78.720363,980.6114 C 69.954433,990.2909 77.522103,1000.1483 86.993863,1011.2417 C 80.780443,999.7326 83.552013,990.2424 89.001413,986.6644 C 96.18782,990.1086 104.06351,992.3792 112.36189,993.1433 C 110.1626,997.1661 107.80622,1003.0538 106.2176,1011.4545 C 104.94452,1018.1866 107.67487,1022.5257 113.73067,1028.7012 C 113.43308,1028.0378 108.76501,1017.3687 114.03484,1014.5267 C 118.48851,1012.1248 121.81262,1020.4946 123.22086,1025.9332 C 124.67374,1031.5442 126.46842,1040.7632 117.98909,1048.1682 C 119.03571,1047.6565 130.22879,1041.7804 130.46018,1024.2603 C 130.56115,1016.731 124.68029,1006.5658 131.82896,1003.6677 C 138.73924,1000.8664 142.13936,1007.8391 138.52075,1022.3135 C 144.23103,1010.1792 146.0629,1003.3334 133.44107,991.8658 C 136.03627,991.3029 138.56786,990.5828 141.04539,989.7366 C 147.19187,996.3784 158.40454,997.0472 170.70227,993.2041 C 162.46096,993.4539 156.24216,989.5789 152.93856,984.3527 C 160.13989,980.2345 166.52215,974.8739 171.79729,968.53571 C 174.07291,972.02259 175.89179,977.4923 174.74776,985.6302 C 173.31661,995.8107 183.50909,996.5279 189.89558,995.7896 C 181.91645,994.9064 178.48575,986.2622 185.66757,983.3794 C 192.62668,980.5859 186.77969,999.3286 207.38552,998.7705 C 196.65757,995.7794 194.66581,991.8247 197.46949,986.9686 C 200.11904,982.3794 205.62925,986.3752 209.97098,989.9495 C 216.17535,995.0571 218.95147,993.3818 231.47602,992.7479 C 212.2871,989.1058 217.33021,976.1679 207.02051,974.7104 C 196.42843,973.21299 190.2576,967.27807 192.3898,958.77176 C 194.42337,950.65894 203.63051,950.36106 210.48808,956.70338 C 204.49809,950.41339 196.29301,942.78074 184.66381,944.81021 C 186.03489,940.37574 186.98174,935.76657 187.43177,931.00076 C 197.59603,930.19309 205.24021,921.73823 211.85686,915.06211 C 202.59259,921.17888 193.67262,922.73776 187.58386,919.92887 C 187.13906,913.05615 185.70063,906.45916 183.38628,900.2793 C 188.41435,897.09633 196.2167,893.17089 203.18793,894.04376 C 214.53978,895.46513 219.68962,885.89115 223.62836,879.35221 C 218.4584,884.79834 208.76457,888.71971 207.87219,880.41681 C 207.02787,872.56122 225.01091,854.73546 239.08033,864.23482 C 229.67401,857.23216 218.25627,855.50577 207.75053,866.3336 C 201.06479,873.22432 191.13777,878.04969 186.36716,873.23833 C 181.7422,868.57383 183.13793,857.94452 196.86113,859.12471 C 186.19591,857.10067 174.02098,860.78633 171.82771,880.3864 C 168.70211,876.62617 165.18007,873.21982 161.33373,870.1966 C 168.74851,860.51197 159.35994,852.44614 150.38351,837.80219 C 155.88784,850.84868 153.2467,859.15296 147.12886,861.55809 C 147.12036,861.55425 147.10692,861.56192 147.09843,861.55809 C 140.76696,858.69711 133.95364,856.73106 126.77969,855.90048 C 129.06046,853.7933 132.81492,851.15267 138.15576,849.78661 C 145.60639,847.8809 143.84774,838.75836 140.58913,833.81753 C 139.91092,838.69432 140.59307,846.3349 132.61981,844.25066 C 124.64654,842.1664 131.91138,833.47092 135.69195,830.74538 C 139.55143,827.96296 135.73629,819.15083 130.42975,815.2934 C 139.58342,823.19024 133.0407,830.56682 124.65048,829.22452 C 116.44704,827.91209 119.94438,818.36519 124.34629,812.95127 C 128.99052,807.2393 121.21,801.61106 113.73066,794.70088 z M 239.20201,864.32606 C 239.28292,864.38175 239.3647,864.45106 239.44534,864.50858 C 239.3633,864.44597 239.28438,864.38787 239.20201,864.32606 z"
         id="path5179"
         style="opacity:1;fill:#ff2a2a;fill-opacity:1;fill-rule:nonzero;stroke:url(#radialGradient7915);stroke-width:2.50000000000000000;stroke-linecap:round;stroke-linejoin:round;marker:none;marker-start:none;marker-mid:none;marker-end:none;stroke-miterlimit:4;stroke-dasharray:none;stroke-dashoffset:0;stroke-opacity:0.87030715000000003;visibility:visible;display:inline;overflow:visible;filter:url(#filter7903)" />
      <path
         transform="matrix(-0.5073788,0.8306526,-0.8306526,-0.5073788,948.76727,1289.7667)"
         id="path3160"
         d="M 114.9375,863.71875 C 81.333466,868.54904 57.897026,904.71614 63.59375,937.5625 C 64.53506,954.56481 79.511083,967.0057 94.46875,973.0625 C 113.05682,983.43899 137.22033,982.24823 154.34375,969.625 C 170.02302,960.32634 180.77192,942.4225 179,923.9375 C 179.74356,902.89822 169.18595,880.26413 148.96875,871.65625 C 138.53945,866.14137 126.70856,863.36997 114.9375,863.71875 z"
         style="opacity:1;fill:#ffff00;fill-opacity:1;fill-rule:evenodd;stroke:none;stroke-width:2.5;stroke-linecap:round;stroke-linejoin:round;marker:none;marker-start:none;marker-mid:none;marker-end:none;stroke-miterlimit:4;stroke-dasharray:none;stroke-dashoffset:0;stroke-opacity:1;visibility:visible;display:inline;overflow:visible;filter:url(#filter4936)" />
      <path
         id="path7242"
         d="M 82.538673,895.11004 C 79.101843,897.88654 75.020593,897.95324 71.743013,901.25414 C 67.864593,904.40334 65.625493,910.05344 67.224363,913.69844 C 68.926813,912.17574 71.991963,911.01234 70.709523,908.83084 C 70.344763,905.07794 73.681793,900.47294 77.490873,899.59264 C 79.064553,899.56754 76.395543,904.02614 76.214133,905.82924 C 74.689773,910.53324 73.109193,915.23454 71.427943,919.92504 C 68.992303,920.76254 66.015013,919.84634 64.256003,922.87984 C 62.005983,925.21754 67.639973,922.73384 68.901753,922.92264 C 73.051253,921.91394 77.811303,921.87224 81.583233,918.55224 C 82.300133,916.37274 77.969543,919.23674 76.562463,918.91694 C 73.929673,919.93264 76.796463,915.75994 76.801063,914.27104 C 76.981993,911.65784 78.725293,911.02924 80.733473,910.37854 C 85.559153,908.53994 91.049433,903.19604 90.701973,897.87344 C 90.100243,894.50754 85.810153,895.32524 82.921253,895.99134 C 82.915283,895.31794 84.094763,893.68274 82.538673,895.11004 z M 83.402963,897.87174 C 86.163143,896.87674 87.150683,899.84044 86.019933,902.42954 C 85.151873,905.78554 81.661873,909.11914 78.562733,908.98084 C 79.754273,905.37984 80.945813,901.77884 82.137363,898.17784 C 82.559343,898.07424 82.981353,897.97074 83.402963,897.87174 z M 104.3286,898.50844 C 102.50736,899.92374 99.96777,900.70784 99.86599,903.34234 C 98.74916,906.14194 98.22684,909.31554 96.74837,911.88774 C 95.28204,912.71164 93.56318,915.12784 92.08013,914.91854 C 91.976783,911.77774 93.96807,908.24954 94.80771,904.93514 C 94.94764,903.69014 97.21931,900.10794 95.10657,900.40234 C 92.75889,901.83054 90.226263,903.61744 88.230943,905.50594 C 86.912443,908.75994 89.518813,905.96234 91.045513,905.31674 C 91.919203,905.53914 90.421063,907.92904 90.385963,908.81584 C 89.621183,912.18744 86.752773,916.32914 88.091393,919.18274 C 89.627353,920.67264 92.25117,917.27804 94.05263,916.19304 C 96.83404,913.23704 96.36079,914.95394 95.4376,917.67994 C 94.41195,920.35484 94.0329,924.73284 90.706223,925.65004 C 88.647763,926.52734 86.502903,925.75564 84.829713,926.36224 C 82.696083,929.17104 82.103633,930.96814 85.673843,929.78614 C 89.182423,929.77764 92.85814,927.50434 95.34669,924.00424 C 99.08481,919.54984 99.36436,913.93644 101.30637,908.93694 C 102.51196,905.23284 103.74685,901.52744 105.24221,897.85614 C 104.93767,898.07354 104.63314,898.29094 104.3286,898.50844 z M 111.06634,897.34494 C 108.71466,898.72664 106.18329,900.34264 104.12034,902.27104 C 102.80078,905.61354 105.53291,902.65664 107.02698,902.06424 C 108.32058,901.97224 106.55457,904.60304 106.68881,905.37444 C 105.32521,909.31264 103.92875,913.24814 102.52185,917.18184 C 104.49991,915.90994 107.28169,915.36384 107.40624,912.52754 C 108.79099,909.08264 109.5212,905.26634 111.29481,902.04204 C 112.96007,900.37944 115.33258,899.82294 116.1025,901.75744 C 116.3009,899.95104 119.42186,896.10544 116.89418,896.26024 C 114.98778,896.25454 113.26567,898.18554 111.69242,899.54774 C 112.09439,898.56024 112.52657,896.82744 111.06634,897.34494 z M 127.21026,894.25214 C 121.75405,896.16454 116.61343,901.86944 115.37572,907.75114 C 114.277,910.77764 114.83214,914.82744 118.25055,914.04134 C 122.91622,912.44774 127.81344,908.18914 129.50685,903.00114 C 130.83152,899.92684 132.31237,895.01994 129.08061,894.18014 C 128.50978,894.03404 127.87342,894.02964 127.21026,894.25214 z M 125.21483,897.33894 C 128.00322,897.27304 126.92957,901.69154 126.11666,903.88764 C 124.98624,906.54264 123.12107,910.87994 120.04923,910.83314 C 117.7696,909.49434 119.33185,905.19814 120.52908,902.46844 C 121.5064,900.55154 123.11672,897.85134 125.21483,897.33894 z M 112.93057,922.44244 C 108.23318,923.88044 103.20914,929.47244 103.24102,934.48054 C 103.56399,938.59194 110.00591,938.39344 108.35219,943.61964 C 106.62619,949.27604 98.36928,951.74878 97.19825,946.67914 C 97.62746,944.17014 95.84221,944.46154 95.00812,946.95204 C 94.35078,948.62964 92.47637,950.84658 94.15178,951.65378 C 97.93906,954.68768 104.86807,951.18598 108.91132,946.69434 C 111.82023,943.67054 114.41613,937.96344 111.18428,935.98154 C 109.41147,934.33304 105.61786,933.29504 107.22809,929.42124 C 107.84408,926.99304 111.59078,924.07804 112.88661,926.07814 C 113.07463,928.27274 113.28232,929.29924 115.49645,926.72654 C 118.05813,925.29274 116.3821,922.10484 114.45431,922.24594 C 113.96475,922.21074 113.45488,922.26464 112.93057,922.44244 z M 125.59425,927.14374 C 121.82863,929.38224 117.96733,932.90244 116.7409,937.33524 C 115.67361,940.42734 113.86955,945.35764 116.75916,946.62274 C 120.45558,946.93044 124.28174,942.89354 127.45328,940.40574 C 129.02184,936.94314 126.88934,938.47824 125.05941,940.32344 C 123.44508,941.62024 120.06544,944.47404 119.31271,942.02894 C 119.20564,938.55484 120.42774,934.36844 122.87111,931.10174 C 124.25804,929.42234 125.51802,930.85724 125.10411,932.36034 C 125.31794,933.16354 128.99294,930.74664 128.46259,929.17144 C 128.4986,927.51864 127.26362,926.50344 125.59425,927.14374 z M 140.94018,924.20384 C 135.17022,926.19414 129.93879,932.36214 128.89246,938.53914 C 127.88215,941.57704 129.15179,945.02174 132.41378,943.87824 C 136.98899,942.05004 141.7083,937.84984 143.32719,932.71924 C 144.66567,929.61094 146.01102,924.53354 142.4567,924.07234 C 141.99216,923.98964 141.46359,924.03204 140.94018,924.20384 z M 152.78724,921.93424 C 150.33951,923.40034 147.74977,925.19684 145.60108,927.12914 C 143.94785,930.40324 146.75986,927.83114 148.30549,927.12004 C 149.52021,927.08564 148.10296,929.54784 148.0594,930.41274 C 146.20914,936.71744 144.16864,943.00344 141.99019,949.33004 C 140.1199,949.34734 137.01817,953.51098 140.6146,951.81148 C 143.22842,951.12268 146.06647,951.37768 148.55596,949.98148 C 152.28484,947.22364 147.77817,948.68324 145.91926,948.82194 C 145.25743,947.60314 147.34716,943.86534 147.71341,941.70534 C 147.93357,939.69634 150.20113,940.85244 151.48613,939.84264 C 155.61326,937.40984 159.27449,933.19304 160.5863,928.54044 C 161.54488,925.85824 163.07635,921.27774 160.24175,920.53794 C 157.49969,920.70034 154.89847,924.09204 152.8426,925.48724 C 153.0317,924.37554 154.6851,921.63074 152.78724,921.93424 z M 171.8162,918.28874 C 167.13623,920.33254 163.50912,925.55104 162.35411,930.44234 C 161.30797,933.38984 160.82673,938.09344 164.36401,937.75734 C 167.98615,937.11424 171.51821,933.67414 174.05272,930.58764 C 175.18086,926.73494 172.52106,930.44744 171.00614,931.62264 C 169.41177,933.17644 166.02904,935.57034 165.52928,932.95234 C 164.73725,930.58194 167.91624,929.43074 169.41166,927.75394 C 172.11396,925.65054 175.75855,921.99374 174.54759,918.84724 C 174.07511,917.98594 172.88418,917.91264 171.8162,918.28874 z M 170.33353,921.08644 C 171.96094,921.16094 170.62625,924.33124 169.47527,925.29174 C 168.57018,926.19084 165.64481,929.40284 166.47437,927.25554 C 167.31641,925.15814 168.22446,922.32204 170.33353,921.08644 z M 138.94475,927.29064 C 141.58139,927.17464 140.70896,931.33074 139.97455,933.42524 C 138.86921,936.18444 136.96501,940.80354 133.74845,940.79074 C 131.44614,939.37174 133.0669,935.11694 134.22831,932.42604 C 135.29293,930.45804 136.77745,927.84354 138.94475,927.29064 z M 157.17377,924.62574 C 158.95933,924.66384 157.57431,927.98454 157.27947,929.34634 C 156.19609,932.40484 154.26837,937.34354 150.70668,937.12834 C 148.05104,937.51934 150.54553,933.98454 150.65888,932.36664 C 151.26774,930.18854 151.78433,927.97844 153.95808,926.80084 C 154.99096,925.97924 156.04758,924.94814 157.17377,924.62574 z"
         style="font-size:40px;font-style:normal;font-weight:normal;line-height:80.00000119000000609%;opacity:1;fill:url(#radialGradient8213);fill-opacity:1;stroke:url(#radialGradient7693);stroke-width:1px;stroke-linecap:butt;stroke-linejoin:miter;stroke-opacity:1;filter:url(#filter5356);font-family:Bitstream Vera Sans" />
      <g
         style="fill:url(#radialGradient8211);stroke:url(#radialGradient7753);fill-opacity:1;opacity:1"
         transform="translate(200.78075,-4.291705)"
         id="g7254"
         clip-path="url(#clipPath8)">
        <g
           style="fill:url(#radialGradient8211);stroke:url(#radialGradient7759);fill-opacity:1"
           id="g7256">
          <path
             id="path7258"
             d="M -129.03774,905.54589 C -132.91616,908.69507 -135.15526,914.34519 -133.55639,917.99021 M -123.28988,903.8844 C -121.7162,903.85931 -124.38521,908.31788 -124.56662,910.12095 M -124.56662,910.12095 C -126.09098,914.82497 -127.67156,919.52623 -129.35281,924.21675 M -136.52475,927.17157 C -138.77477,929.50919 -133.14078,927.02548 -131.879,927.21435 M -131.879,927.21435 C -127.7295,926.20566 -122.96945,926.16394 -119.19752,922.84399 M -123.97969,918.56279 C -123.79876,915.94957 -122.05546,915.32097 -120.04728,914.67028 M -117.37779,902.16349 C -114.61761,901.16848 -113.63007,904.13219 -114.76082,906.72125 M -118.64339,902.46958 C -118.22141,902.36593 -117.7994,902.26244 -117.37779,902.16349 M -96.45215,902.80014 C -98.27339,904.21543 -100.81298,904.99955 -100.91476,907.63404 M -100.91476,907.63404 C -102.03159,910.43371 -102.55391,913.60724 -104.03238,916.17947 M -112.54981,909.79769 C -113.86831,913.05163 -111.26194,910.25411 -109.73524,909.60849 M -109.73524,909.60849 C -108.86155,909.83089 -110.35969,912.22082 -110.39479,913.10758 M -110.39479,913.10758 C -111.15957,916.47916 -114.02798,920.62088 -112.68936,923.47447 M -112.68936,923.47447 C -111.1534,924.96433 -108.52958,921.56978 -106.72812,920.48476 M -106.72812,920.48476 C -103.94671,917.52875 -104.41996,919.24568 -105.34315,921.97167 M -105.34315,921.97167 C -106.3688,924.64655 -106.74785,929.02453 -110.07453,929.94174 M -115.95104,930.65389 C -118.08467,933.46273 -118.67712,935.25983 -115.10691,934.07781 M -115.10691,934.07781 C -111.59833,934.06928 -107.92261,931.79599 -105.43406,928.29597 M -96.66041,906.56278 C -97.97997,909.90527 -95.24784,906.94834 -93.75377,906.35594 M -93.75377,906.35594 C -92.46017,906.26398 -94.22618,908.89473 -94.09194,909.66619 M -94.09194,909.66619 C -95.45554,913.60437 -96.852,917.53987 -98.2589,921.4736 M -98.2589,921.4736 C -96.28084,920.20164 -93.49906,919.6556 -93.37451,916.81926 M -89.48594,906.33379 C -87.82068,904.67113 -85.44817,904.11465 -84.67825,906.04913 M -73.57049,898.54387 C -79.0267,900.45625 -84.16732,906.16113 -85.40503,912.04292 M -85.40503,912.04292 C -86.50375,915.06934 -85.94861,919.11919 -82.5302,918.33311 M -82.5302,918.33311 C -77.86453,916.73952 -72.96731,912.48092 -71.2739,907.29284 M -75.56592,901.6307 C -72.77753,901.56479 -73.85118,905.98329 -74.66409,908.1794 M -74.66409,908.1794 C -75.79451,910.83438 -77.65968,915.17166 -80.73152,915.12488 M -87.85018,926.73412 C -92.54757,928.17215 -97.57161,933.76414 -97.53973,938.77224 M -97.53973,938.77224 C -97.21676,942.88364 -90.77484,942.68511 -92.42856,947.91129 M -105.77263,951.24374 C -106.42997,952.92132 -108.30438,955.13822 -106.62897,955.94542 M -106.62897,955.94542 C -102.84169,958.97932 -95.91268,955.47762 -91.86943,950.986 M -93.55266,933.71296 C -92.93667,931.28473 -89.18997,928.36969 -87.89414,930.36983 M -87.89414,930.36983 C -87.70612,932.5644 -87.49843,933.59092 -85.2843,931.01824 M -75.1865,931.43538 C -78.95212,933.67397 -82.81342,937.19414 -84.03985,941.62694 M -84.03985,941.62694 C -85.10714,944.71905 -86.9112,949.64931 -84.02159,950.91438 M -84.02159,950.91438 C -80.32517,951.22214 -76.49901,947.18519 -73.32747,944.69746 M -77.90964,935.39344 C -76.52271,933.71404 -75.26273,935.1489 -75.67664,936.65202 M -75.67664,936.65202 C -75.46281,937.45522 -71.78781,935.03828 -72.31816,933.46316 M -59.84057,928.49549 C -65.61053,930.4858 -70.84196,936.65384 -71.88829,942.83084 M -71.88829,942.83084 C -72.8986,945.86871 -71.62896,949.31344 -68.36697,948.1699 M -55.17967,931.42078 C -56.8329,934.69493 -54.02089,932.12283 -52.47526,931.41177 M -52.47526,931.41177 C -51.26054,931.37735 -52.67779,933.83957 -52.72135,934.70438 M -52.72135,934.70438 C -54.57161,941.00911 -56.61211,947.29508 -58.79056,953.62169 M -58.79056,953.62169 C -60.66085,953.63906 -63.76258,957.80262 -60.16615,956.10312 M -60.16615,956.10312 C -57.55233,955.41434 -54.71428,955.66932 -52.22479,954.27308 M -53.06734,945.99705 C -52.84718,943.98801 -50.57962,945.14415 -49.29462,944.13431 M -28.96455,922.58044 C -33.64452,924.62418 -37.27163,929.84273 -38.42664,934.73407 M -38.42664,934.73407 C -39.47278,937.68156 -39.95402,942.38516 -36.41674,942.04905 M -36.41674,942.04905 C -32.7946,941.40594 -29.26254,937.96586 -26.72803,934.87929 M -30.44722,925.37812 C -28.81981,925.45267 -30.1545,928.62294 -31.30548,929.58346 M -61.836,931.58232 C -59.19936,931.46628 -60.07179,935.62241 -60.8062,937.71688 M -60.8062,937.71688 C -61.91154,940.47612 -63.81574,945.09521 -67.0323,945.08238 M -43.60698,928.91738 C -41.82142,928.95552 -43.20644,932.27618 -43.50128,933.63805 M -43.50128,933.63805 C -44.58466,936.69656 -46.51238,941.63524 -50.07407,941.41998 M -46.82267,931.09252 C -45.78979,930.2709 -44.73317,929.23983 -43.60698,928.91738"
             style="fill:url(#radialGradient8211);stroke:url(#radialGradient7755);stroke-width:10;stroke-opacity:1;filter:url(#filtera);fill-opacity:1" />
          <path
             id="path7260"
             d="M -118.24208,899.40178 C -121.67891,902.17824 -125.76016,902.24499 -129.03774,905.54589 M -133.55639,917.99021 C -131.85394,916.46751 -128.78879,915.30403 -130.07123,913.12253 M -130.07123,913.12253 C -130.43599,909.36971 -127.09896,904.76467 -123.28988,903.8844 M -129.35281,924.21675 C -131.78845,925.05426 -134.76574,924.13807 -136.52475,927.17157 M -119.19752,922.84399 C -118.48062,920.66452 -122.81121,923.52844 -124.21829,923.20869 M -124.21829,923.20869 C -126.85108,924.22431 -123.98429,920.05168 -123.97969,918.56279 M -120.04728,914.67028 C -115.2216,912.83165 -109.73132,907.48777 -110.07878,902.16519 M -110.07878,902.16519 C -110.68051,898.79926 -114.9706,899.61695 -117.8595,900.28304 M -117.8595,900.28304 C -117.86547,899.60968 -116.68599,897.97452 -118.24208,899.40178 M -114.76082,906.72125 C -115.62888,910.07731 -119.11888,913.41086 -122.21802,913.27261 M -122.21802,913.27261 C -121.02648,909.6716 -119.83494,906.07059 -118.64339,902.46958 M -104.03238,916.17947 C -105.49871,917.00342 -107.21757,919.41958 -108.70062,919.21032 M -108.70062,919.21032 C -108.80397,916.06948 -106.81268,912.54127 -105.97304,909.22685 M -105.97304,909.22685 C -105.83311,907.9819 -103.56144,904.39972 -105.67418,904.69412 M -105.67418,904.69412 C -108.02186,906.12226 -110.55449,907.90916 -112.54981,909.79769 M -110.07453,929.94174 C -112.13299,930.819 -114.27785,930.0473 -115.95104,930.65389 M -105.43406,928.29597 C -101.69594,923.84162 -101.41639,918.22821 -99.47438,913.22871 M -99.47438,913.22871 C -98.26879,909.52454 -97.0339,905.81921 -95.53854,902.14784 M -95.53854,902.14784 C -95.84308,902.36528 -96.14761,902.58271 -96.45215,902.80014 M -89.71441,901.63663 C -92.06609,903.01835 -94.59746,904.63436 -96.66041,906.56278 M -93.37451,916.81926 C -91.98976,913.37435 -91.25955,909.5581 -89.48594,906.33379 M -84.67825,906.04913 C -84.47985,904.24277 -81.35889,900.39713 -83.88657,900.55199 M -83.88657,900.55199 C -85.79297,900.54625 -87.51508,902.47726 -89.08833,903.83943 M -89.08833,903.83943 C -88.68636,902.852 -88.25418,901.11915 -89.71441,901.63663 M -71.2739,907.29284 C -69.94923,904.21861 -68.46838,899.31169 -71.70014,898.47192 M -71.70014,898.47192 C -72.27097,898.32579 -72.90733,898.32141 -73.57049,898.54387 M -80.73152,915.12488 C -83.01115,913.78609 -81.4489,909.48988 -80.25167,906.7602 M -80.25167,906.7602 C -79.27435,904.84331 -77.66403,902.14311 -75.56592,901.6307 M -92.42856,947.91129 C -94.15456,953.56769 -102.41147,956.04042 -103.5825,950.97083 M -103.5825,950.97083 C -103.15329,948.46178 -104.93854,948.75325 -105.77263,951.24374 M -91.86943,950.986 C -88.96052,947.96225 -86.36462,942.25516 -89.59647,940.27326 M -89.59647,940.27326 C -91.36928,938.62477 -95.16289,937.58674 -93.55266,933.71296 M -85.2843,931.01824 C -82.72262,929.58438 -84.39865,926.39648 -86.32644,926.53767 M -86.32644,926.53767 C -86.816,926.50243 -87.32587,926.55632 -87.85018,926.73412 M -73.32747,944.69746 C -71.75891,941.23479 -73.89141,942.76989 -75.72134,944.61516 M -75.72134,944.61516 C -77.33567,945.91194 -80.71531,948.76577 -81.46804,946.32063 M -81.46804,946.32063 C -81.57511,942.84652 -80.35301,938.66013 -77.90964,935.39344 M -72.31816,933.46316 C -72.28215,931.81028 -73.51713,930.7951 -75.1865,931.43538 M -68.36697,948.1699 C -63.79176,946.34176 -59.07245,942.14155 -57.45356,937.01096 M -57.45356,937.01096 C -56.11508,933.90264 -54.76973,928.82525 -58.32405,928.36406 M -58.32405,928.36406 C -58.78859,928.28133 -59.31716,928.32368 -59.84057,928.49549 M -47.99351,926.2259 C -50.44124,927.69207 -53.03098,929.48848 -55.17967,931.42078 M -52.22479,954.27308 C -48.49591,951.51534 -53.00258,952.9749 -54.86149,953.11362 M -54.86149,953.11362 C -55.52332,951.89483 -53.43359,948.15704 -53.06734,945.99705 M -49.29462,944.13431 C -45.16749,941.70152 -41.50626,937.48476 -40.19445,932.83216 M -40.19445,932.83216 C -39.23587,930.14989 -37.7044,925.56943 -40.539,924.82962 M -40.539,924.82962 C -43.28106,924.99207 -45.88228,928.38373 -47.93815,929.77894 M -47.93815,929.77894 C -47.74905,928.66724 -46.09565,925.92241 -47.99351,926.2259 M -26.72803,934.87929 C -25.59989,931.02661 -28.25969,934.7391 -29.77461,935.91435 M -29.77461,935.91435 C -31.36898,937.46814 -34.75171,939.86199 -35.25147,937.24398 M -35.25147,937.24398 C -36.0435,934.87359 -32.86451,933.72241 -31.36909,932.04566 M -31.36909,932.04566 C -28.66679,929.94219 -25.0222,926.28542 -26.23316,923.13899 M -26.23316,923.13899 C -26.70564,922.27768 -27.89657,922.20435 -28.96455,922.58044 M -31.30548,929.58346 C -32.21057,930.48248 -35.13594,933.69455 -34.30638,931.54726 M -34.30638,931.54726 C -33.46434,929.44979 -32.55629,926.61376 -30.44722,925.37812 M -67.0323,945.08238 C -69.33461,943.66343 -67.71385,939.40858 -66.55244,936.7177 M -66.55244,936.7177 C -65.48782,934.74976 -64.0033,932.13518 -61.836,931.58232 M -50.07407,941.41998 C -52.72971,941.81106 -50.23522,938.27626 -50.12187,936.65831 M -50.12187,936.65831 C -49.51301,934.48024 -48.99642,932.27011 -46.82267,931.09252"
             style="fill:url(#radialGradient8211);stroke:url(#radialGradient7757);stroke-width:10;stroke-opacity:1;filter:url(#filtera);fill-opacity:1" />
        </g>
      </g>
      <path
         id="path7244"
         d="M 81.46875,893.75 C 75.343157,897.05585 67.583115,899.91065 65.53125,907.46875 C 64.503324,910.41881 65.276251,913.55699 66.28125,916.40625 C 71.734879,911.23501 73.524854,911.28147 70.207562,918.28991 C 66.141672,917.26666 57.323409,926.10763 60.811663,926.01818 C 68.101488,923.89736 77.545757,924.8718 83.0625,919.125 C 87.920878,911.83069 77.987892,918.7424 77.875,916.0625 C 77.877799,911.46474 83.070199,912.00113 85.65625,909.375 C 87.490415,910.14581 88.851432,909.46782 86.21875,915.875 C 84.772384,919.03847 88.404447,923.03449 91.3125,920.28125 C 94.404036,917.11468 92.611884,921.51806 91.5,923.25 C 88.458657,926.15506 82.692292,922.26461 81.831513,928.00998 C 76.976408,932.99592 83.001306,931.74092 86.71875,931.21875 C 96.551975,929.99225 100.56014,919.11217 102.42086,910.70645 C 105.18572,901.90512 104.41196,908.38698 101.95315,913.70789 C 97.694836,921.78769 101.30059,920.46343 107.25,916.34375 C 110.91927,912.73208 109.26495,904.60541 114.25,902.0625 C 116.05102,905.14389 111.57757,909.539 113.71875,913.25 C 116.50771,918.32976 122.83187,914.10663 125.71875,911.3125 C 130.07152,907.32067 133.37479,900.87006 132.125,894.9375 C 129.06926,889.73415 122.54011,894.21322 119.5625,897.1875 C 121.87822,893.86042 115.16714,894.16333 113.40625,895.875 C 111.43583,895.48468 108.6488,896.04218 106.875,898 C 111.33295,889.79189 103.88239,897.1575 100.25,899.25 C 97.637353,900.96312 95.607919,913.71536 94.789154,910.11522 C 94.990738,906.62882 100.0023,901.22965 95.8125,898.75 C 93.808724,898.24518 91.445243,901.85601 92.28125,898.40625 C 92.445529,894.76727 88.255936,893.13681 85.1875,893.9375 C 88.118356,887.39315 84.165215,892.48069 81.46875,893.75 z M 125.28125,899.03125 C 125.28281,902.57272 123.34849,907.56268 120.4375,909.03125 C 120.49691,905.47979 122.33997,901.01824 125.28125,899.03125 z M 84.3125,899.3125 C 85.753466,901.20653 83.070433,905.15886 81.0625,906.5 C 82.380707,904.73625 81.926652,899.64223 84.3125,899.3125 z M 75.15625,903.53125 C 74.272764,905.52337 72.61162,913.80416 72.25,908.4375 C 72.314914,906.02204 73.606422,903.73138 75.53125,902.3125 L 75.237164,903.26828 L 75.15625,903.53125 z M 172.09375,916.5625 C 168.37447,917.26286 165.19358,921.24187 163.40625,923.40625 C 164.05545,919.20925 158.72813,917.548 156.15625,920.53125 C 154.77248,922.18982 152.65602,918.94155 150.84375,921.09375 C 148.3214,922.19829 146.19566,926.3834 144.1875,923.0625 C 138.6618,920.92701 133.4853,926.62154 130.375,930.53125 C 128.57439,935.19219 125.09101,938.98698 120.78125,941.1875 C 121.07725,938.26883 121.9869,935.47868 123.46875,932.9375 C 121.89163,939.10187 129.82079,932.47971 129.96875,929.78125 C 130.76036,925.02059 124.34974,924.11457 122.0625,927.53125 C 117.85312,930.26686 115.37339,934.80825 114.21875,939.59375 C 115.13105,935.37274 109.73317,934.16703 108.40625,931.40625 C 108.41034,929.65735 109.91906,927.31511 111.46875,927.21875 C 109.40436,935.65923 118.11462,928.21783 118.28125,924.5625 C 117.70223,918.89037 110.40491,920.40113 107.625,923.46875 C 103.0742,926.74744 98.425134,935.18334 104.625,939.1875 C 110.76107,941.61603 102.69312,950.56839 98.90625,947 C 98.162222,943.80195 98.873754,938.74301 95.21875,943.71875 C 92.601511,946.4409 89.708025,951.69278 94.34375,953.65625 C 102.18983,956.29953 110.248,949.43087 113.40625,942.65625 C 113.95166,941.17367 112.91852,946.37103 114.78125,947.21875 C 119.19629,950.85115 124.48036,943.89042 127.375,943.15625 C 130.49409,948.57092 137.07382,943.58765 140.09375,940.71875 C 143.57535,938.10479 144.18096,933.23255 146.40625,930.09375 C 144.47586,936.05569 142.87277,942.57502 140.28125,948.0625 C 134.66135,952.3064 133.25238,956.23531 141.75302,953.19642 C 147.50015,953.35995 151.56633,950.10402 155.125,945.9375 C 150.11849,948.10174 145.10713,946.36586 150.03125,941.9375 C 154.29723,941.46705 158.13256,935.83373 159.90625,934.34375 C 159.24356,939.37578 165.61134,940.70967 168.71875,937.6875 C 173.30679,934.82181 176.98253,930.5704 176.34118,924.73041 C 174.76915,924.67472 171.08299,929.86541 168.21875,931.6875 C 164.35424,934.28261 172.38969,926.9438 170.46875,928.96875 C 173.76526,926.52864 178.90179,920.90059 174.8125,917.03125 C 174.01078,916.53961 173.00869,916.38102 172.09375,916.5625 z M 156.125,927.1875 C 155.18877,930.08033 154.25893,933.91117 151.34375,935.46875 C 152.29827,932.34103 152.96393,928.39491 156.125,927.1875 z M 139,928.9375 C 139.06418,932.48374 137.04341,937.46445 134.15625,938.9375 C 134.26144,935.33047 135.99154,931.1136 139,928.9375 z"
         style="font-size:40px;font-style:normal;font-weight:normal;line-height:80.00000119000000609%;opacity:1;fill:url(#radialGradient8209);fill-opacity:1;stroke:url(#linearGradient8083);stroke-width:1px;stroke-linecap:butt;stroke-linejoin:miter;stroke-opacity:1;font-family:Bitstream Vera Sans" />
    </g>
  </g>
</svg>
